Coordinates
version=1
nRows=65
nColumns=12
inDegrees=yes

Units are S.I. units (second, meters, Newtons, ...)
Angles are in degrees

endheader
time	SC_y	SC_z	SC_x	AC_y	AC_z	AC_x	GH_y	GH_z	GH_yy	EL_x	PS_y
       0.0              -47.87          2.349          34.67          43.44         -12.24        -0.9282         -101.6         -6.127         -53.22          78.72          58.28
   0.04801              -47.87          2.348          34.67          43.44         -12.24        -0.9263         -101.6         -6.117         -53.22          78.72          58.28
   0.09603              -47.87          2.347          34.67          43.44         -12.24        -0.9243         -101.6         -6.107         -53.22          78.71          58.27
     0.144              -47.87          2.346          34.67          43.44         -12.23        -0.9221         -101.5         -6.096         -53.22          78.71          58.26
    0.1921              -47.87          2.345          34.67          43.44         -12.23        -0.9198         -101.5         -6.085         -53.23           78.7          58.25
    0.2401              -47.87          2.344          34.67          43.44         -12.23        -0.9173         -101.5         -6.073         -53.23          78.69          58.24
    0.2881              -47.87          2.342          34.67          43.44         -12.23        -0.9147         -101.5          -6.06         -53.23          78.69          58.24
    0.3361              -47.87          2.341          34.67          43.44         -12.23        -0.9119         -101.4         -6.046         -53.23          78.68          58.22
    0.3841              -47.87           2.34          34.67          43.44         -12.23        -0.9089         -101.4         -6.031         -53.24          78.67          58.21
    0.4321              -47.88          2.338          34.67          43.44         -12.23        -0.9057         -101.4         -6.015         -53.24          78.66           58.2
    0.4801              -47.88          2.336          34.67          43.44         -12.23        -0.9022         -101.3         -5.998         -53.24          78.65          58.19
    0.5281              -47.88          2.335          34.67          43.44         -12.22        -0.8985         -101.3         -5.979         -53.25          78.64          58.18
    0.5762              -47.88          2.333          34.67          43.44         -12.22        -0.8945         -101.2         -5.959         -53.25          78.63          58.16
    0.6242              -47.88          2.331          34.67          43.44         -12.22        -0.8902         -101.2         -5.938         -53.26          78.62          58.15
    0.6722              -47.88          2.328          34.67          43.44         -12.22        -0.8855         -101.1         -5.915         -53.26          78.61          58.13
    0.7202              -47.89          2.326          34.67          43.44         -12.21        -0.8804         -101.1         -5.889         -53.27          78.59          58.11
    0.7682              -47.89          2.323          34.66          43.44         -12.21        -0.8748         -101.0         -5.862         -53.27          78.58          58.09
    0.8162              -47.89           2.32          34.66          43.44         -12.21        -0.8688         -100.9         -5.832         -53.28          78.56          58.07
    0.8642              -47.89          2.317          34.66          43.44         -12.21        -0.8622         -100.9         -5.799         -53.28          78.55          58.04
    0.9122               -47.9          2.314          34.66          43.44          -12.2         -0.855         -100.8         -5.763         -53.29          78.53          58.02
    0.9603               -47.9           2.31          34.66          43.44          -12.2        -0.8471         -100.7         -5.724          -53.3          78.51          57.99
     1.008               -47.9          2.305          34.66          43.44         -12.19        -0.8384         -100.6         -5.681         -53.31          78.48          57.96
     1.056              -47.91          2.301          34.65          43.44         -12.19        -0.8288         -100.5         -5.633         -53.32          78.46          57.92
     1.104              -47.91          2.296          34.65          43.44         -12.18        -0.8181         -100.3          -5.58         -53.33          78.43          57.88
     1.152              -47.92           2.29          34.65          43.44         -12.18        -0.8063         -100.2         -5.521         -53.34           78.4          57.84
       1.2              -47.92          2.284          34.65          43.44         -12.17        -0.7931         -100.1         -5.456         -53.35          78.36          57.79
     1.248              -47.93          2.276          34.64          43.44         -12.16        -0.7782         -99.89         -5.382         -53.37          78.32          57.73
     1.296              -47.94          2.268          34.64          43.44         -12.16        -0.7616          -99.7           -5.3         -53.38          78.28          57.67
     1.344              -47.95          2.259          34.64          43.44         -12.15        -0.7428         -99.48         -5.206          -53.4          78.23           57.6
     1.392              -47.96          2.249          34.63          43.44         -12.14        -0.7214         -99.24           -5.1         -53.42          78.17          57.53
      1.44              -47.97          2.237          34.63          43.44         -12.13         -0.697         -98.96         -4.979         -53.45           78.1          57.44
     1.488              -47.98          2.224          34.62          43.44         -12.11         -0.669         -98.64          -4.84         -53.47          78.03          57.33
     1.536              -47.99          2.208          34.62          43.44          -12.1        -0.6367         -98.27          -4.68         -53.51          77.94          57.22
     1.584              -48.01           2.19          34.61          43.44         -12.08        -0.5991         -97.84         -4.493         -53.54          77.84          57.08
     1.632              -48.03          2.169           34.6          43.44         -12.06        -0.5552         -97.33         -4.275         -53.59          77.73          56.92
      1.68              -48.05          2.144          34.59          43.44         -12.03        -0.5034         -96.74         -4.018         -53.64          77.59          56.73
     1.728              -48.08          2.114          34.58          43.44          -12.0        -0.4418         -96.03         -3.712          -53.7          77.42           56.5
     1.776              -48.11          2.078          34.56          43.44         -11.96         -0.368         -95.19         -3.346         -53.77          77.23          56.23
     1.824              -48.15          2.035          34.55          43.44         -11.92        -0.2788         -94.16         -2.903         -53.86          76.99           55.9
     1.872               -48.2          1.982          34.52          43.44         -11.87        -0.1697         -92.91         -2.361         -53.97           76.7           55.5
     1.921              -48.26          1.917           34.5          43.44          -11.8       -0.03511         -91.37         -1.693          -54.1          76.34          55.01
     1.969              -48.33          1.836          34.46          43.44         -11.72         0.1327         -89.45        -0.8601         -54.27          75.89          54.39
     2.017              -48.42          1.734          34.42          43.44         -11.62         0.3442         -87.02         0.1894         -54.48          75.33          53.62
     2.065              -48.54          1.604          34.37          43.44         -11.49          0.613         -83.94          1.524         -54.74          74.61          52.63
     2.113              -48.69          1.438           34.3          43.44         -11.32          0.957          -80.0          3.231         -55.08          73.69          51.37
     2.161              -48.88          1.224          34.21          43.44          -11.1          1.398         -74.94          5.423         -55.52          72.52          49.75
     2.209              -49.13         0.9514           34.1          43.43         -10.83          1.962         -68.47          8.222         -56.08          71.01          47.68
     2.257              -49.44         0.6086          33.96          43.43         -10.48          2.671         -60.35          11.74         -56.78          69.12          45.08
     2.305              -49.81         0.1909          33.79          43.43         -10.06          3.536         -50.44          16.03         -57.64          66.81          41.91
     2.353              -50.25        -0.2934          33.59          43.42         -9.575          4.537         -38.96           21.0         -58.63          64.14          38.23
     2.401              -50.73        -0.8177          33.37          43.42         -9.047          5.622         -26.53          26.39          -59.7          61.25          34.26
     2.449               -51.2         -1.342          33.16          43.42         -8.519          6.706         -14.09          31.77         -60.78          58.36          30.28
     2.497              -51.64         -1.826          32.96          43.41         -8.031          7.708         -2.612          36.74         -61.77          55.69           26.6
     2.545              -52.01         -2.244          32.79          43.41          -7.61          8.572          7.293          41.03         -62.62          53.38          23.43
     2.593              -52.32         -2.587          32.65          43.41         -7.264          9.281          15.42          44.55         -63.33          51.49          20.83
     2.641              -52.57         -2.859          32.54           43.4          -6.99          9.845          21.89          47.35         -63.88          49.98          18.76
     2.689              -52.76         -3.073          32.45           43.4         -6.774          10.29          26.95          49.54         -64.32          48.81          17.14
     2.737              -52.91         -3.239          32.38           43.4         -6.607          10.63          30.89          51.25         -64.66          47.89          15.88
     2.785              -53.03         -3.369          32.33           43.4         -6.476           10.9          33.97          52.59         -64.93          47.17          14.89
     2.833              -53.12         -3.471          32.29           43.4         -6.373          11.11           36.4          53.64         -65.14          46.61          14.12
     2.881               -53.2         -3.553          32.25           43.4         -6.291          11.28          38.32          54.47          -65.3          46.16           13.5
     2.929              -53.25         -3.618          32.23           43.4         -6.226          11.41          39.86          55.14         -65.44           45.8          13.01
     2.977               -53.3          -3.67           32.2           43.4         -6.172          11.52          41.11          55.68         -65.54          45.51          12.61
     3.025              -53.34         -3.713          32.19           43.4         -6.129          11.61          42.14          56.12         -65.63          45.27          12.28
     3.073              -53.37         -3.749          32.17           43.4         -6.093          11.69          42.98          56.49         -65.71          45.08          12.01
